<svg width="310" height="233" viewBox="0 0 310 233" fill="none" xmlns="http://www.w3.org/2000/svg">
<rect width="310" height="232.5" rx="15" fill="#272727"/>
<path d="M50.4844 121.812H48.2188V119.547H41.5V117.281H39.3125V115.094H41.5V117.281H48.2188V119.547H50.4844V121.812ZM50.4844 112.828V115.094H41.5V112.828H50.4844ZM39.3125 124V121.812H48.2188V124H39.3125ZM48.2344 130.719H46.0469V128.531H43.7812V126.266H46.0469V128.531H48.2344V130.719ZM48.2344 128.531V126.266H50.5V128.531H48.2344ZM64.4844 121.812H62.2188V108.375H64.4844V121.812ZM53.3125 121.812V112.828H55.5V121.812H53.3125ZM62.2188 121.812V124H55.5V121.812H62.2188ZM78.4844 115.094V124H76.2188V115.094H69.5V112.828H76.2188V115.094H78.4844ZM67.3125 124V121.812H69.5V117.281H67.3125V115.094H69.5V117.281H71.7656V124H67.3125ZM90.2188 124H88.0312V115.094H81.3125V112.828H88.0312V115.094H90.2188V124ZM104.203 121.812H101.938V112.828H104.203V121.812ZM93.0312 121.812V112.828H95.2188V121.812H93.0312ZM99.75 121.812H101.938V124H99.75V121.812H97.4844V117.281H99.75V121.812ZM97.4844 121.812V124H95.2188V121.812H97.4844ZM118.203 121.812H115.938V108.375H118.203V121.812ZM107.031 121.812V112.828H109.219V121.812H107.031ZM115.938 121.812V124H109.219V121.812H115.938ZM132.203 121.812H129.938V119.547H123.219V117.281H121.031V115.094H123.219V117.281H129.938V119.547H132.203V121.812ZM132.203 112.828V115.094H123.219V112.828H132.203ZM121.031 124V121.812H129.938V124H121.031ZM135.031 117.359V115.094H141.75V117.359H135.031ZM141.75 119.625V121.812H135.031V119.625H141.75ZM155.734 115.094V124H153.469V115.094H155.734ZM146.75 124H144.562V115.094H146.75V124ZM146.75 115.094V112.828H153.469V115.094H146.75ZM158.562 115.094V112.828H167.469V115.094H158.562ZM169.734 121.812H167.469V115.094H169.734V121.812ZM158.562 121.812V117.281H163.016V119.547H160.75V121.812H158.562ZM167.469 121.812V124H160.75V121.812H167.469ZM174.75 124V121.812H172.562V112.828H174.75V121.812H181.469V124H174.75ZM183.734 121.812H181.469V112.828H183.734V121.812ZM197.734 124H195.469V119.547H191.016V117.281H195.469V115.094H188.75V112.828H195.469V115.094H197.734V124ZM188.75 117.281H186.562V115.094H188.75V117.281ZM209.469 124H207.281V115.094H200.562V112.828H207.281V115.094H209.469V124ZM223.453 115.094V124H221.188V115.094H223.453ZM214.469 124H212.281V115.094H214.469V124ZM214.469 115.094V112.828H221.188V115.094H214.469ZM233.469 115.094V117.281H240.188V119.547H233.469V124H231.281V112.828H240.188V115.094H242.453V117.281H240.188V115.094H233.469ZM254.188 117.281V115.094H247.469V117.281H254.188V119.547H256.453V124H254.188V119.547H247.469V124H245.281V112.828H254.188V115.094H256.453V117.281H254.188Z" fill="white"/>
</svg>
