<svg width="39" height="47" viewBox="0 0 39 47" fill="none" xmlns="http://www.w3.org/2000/svg">
<path d="M29.3914 28.2125L30.3637 28.182L35.6197 35.9185C35.7871 36.1649 35.6414 36.5019 35.3471 36.5485L31.0676 37.2281C30.948 37.2471 30.8432 37.3183 30.7815 37.4224L28.5732 41.1506C28.4214 41.4069 28.0545 41.4183 27.8871 41.1718L22.5967 33.3848L22.8593 32.6351L29.3914 28.2125Z" fill="#48AB93"/>
<path d="M22.597 33.3848L21.528 31.8114L29.2982 26.6134L30.364 28.1822C28.4006 30.5649 25.7452 32.4129 22.597 33.3848Z" fill="#48AB93"/>
<path d="M12.9312 32.6231L12.074 33.0828L11.3904 42.4108C11.3686 42.7079 11.6633 42.9268 11.9414 42.8201L15.9874 41.2688C16.1004 41.2255 16.2268 41.2348 16.3323 41.2941L20.1089 43.4187C20.3685 43.5647 20.6919 43.3911 20.7137 43.094L21.4017 33.705L20.7994 33.1871L12.9312 32.6231Z" fill="#48AB93"/>
<path d="M21.4017 33.705L21.5407 31.8079L12.2125 31.1914L12.0739 33.0829C14.9657 34.1647 18.1893 34.4374 21.4017 33.705Z" fill="#48AB93"/>
<path d="M21.2758 30.8195C7.26834 34.5728 3.63691 21.0666 3.58579 20.8293C1.9665 13.3134 6.51594 5.76994 14.0247 3.75798C21.5334 1.74603 29.245 6.00411 31.6007 13.3228C31.675 13.5538 35.3007 27.0616 21.2758 30.8195Z" fill="#FF8C05"/>
<path d="M21.1618 30.3941C13.6531 32.406 5.94172 28.1479 3.58602 20.8293C3.63714 21.0666 3.69425 21.3039 3.75776 21.5409C5.83323 29.2867 13.7949 33.8834 21.5407 31.8079C29.2864 29.7324 33.8831 21.7707 31.8076 14.025C31.7441 13.7879 31.675 13.5539 31.6006 13.3228C33.2198 20.8388 28.6706 28.3821 21.1618 30.3941Z" fill="#FF8C05"/>
<path d="M20.4959 27.9083C9.46947 30.8629 6.61481 20.2683 6.56696 20.0305C5.38468 14.1602 8.95779 8.30565 14.8223 6.73426C20.6868 5.16286 26.7085 8.44653 28.6198 14.1215C28.6972 14.3513 31.5446 24.9478 20.4959 27.9083Z" fill="#B56304"/>
<path d="M20.3647 27.4178C14.5001 28.9892 8.47938 25.7051 6.56809 20.0304C6.61594 20.2681 6.67069 20.506 6.73432 20.7434C8.36935 26.8454 14.6415 30.4667 20.7435 28.8316C26.8455 27.1966 30.4667 20.9245 28.8317 14.8225C28.768 14.5849 28.6966 14.3516 28.6191 14.1218C29.8013 19.992 26.2291 25.8465 20.3647 27.4178Z" fill="#B56304"/>
<path d="M17.3519 12.13L18.9418 13.9418C19.1953 14.2306 19.5747 14.3763 19.9564 14.3312L22.3502 14.0487C23.3114 13.9352 23.9854 14.9731 23.4909 15.8051L22.259 17.877C22.0626 18.2074 22.0414 18.6132 22.2021 18.9623L23.2107 21.1517C23.3063 21.3593 23.3129 21.7719 23.3129 21.7719L21.736 22.1944L18.7607 21.4335L16.5645 23.58L15.009 24.0305C15.009 24.0305 14.7882 23.6553 14.766 23.4143L14.5447 21.014C14.5095 20.6313 14.2881 20.2905 13.9528 20.1026L11.8501 18.9241C11.0058 18.451 11.0705 17.2151 11.9597 16.8327L14.1741 15.8805C14.5271 15.7287 14.7829 15.4128 14.858 15.0359L15.329 12.6719C15.5181 11.7228 16.7136 11.4025 17.3519 12.13Z" fill="#6B3B02"/>
<path d="M18.4073 20.8439L14.9887 24.0022C15.377 24.5258 16.1787 24.6665 16.7217 24.1649L18.4923 22.5292C18.7746 22.2685 19.1671 22.1633 19.542 22.2479L21.8933 22.7792C22.6143 22.9421 23.2383 22.4194 23.3128 21.7718L18.773 20.746C18.6423 20.7165 18.5056 20.7531 18.4073 20.8439Z" fill="#6B3B02"/>
</svg>
