<svg width="62" height="62" viewBox="0 0 62 62" fill="none" xmlns="http://www.w3.org/2000/svg">
<g clip-path="url(#clip0_466_4486)">
<path d="M37.996 43.1517L30.5026 45.1596L29.0975 38.0142C30.2625 37.9851 31.4555 37.8191 32.6327 37.5037C33.7043 37.2165 34.7229 36.8223 35.6734 36.3249L37.996 43.1517Z" fill="#F6B90C"/>
<path d="M23.3506 47.084L45.1443 41.2444L46.4222 46.0137L24.6285 51.8533L23.3506 47.084Z" fill="#65F1CF"/>
<path d="M52.5278 49.4813L21.0748 57.9091L21.3439 52.7253L49.7104 45.1245L52.5278 49.4813Z" fill="#4C5FFF"/>
<path d="M42.3992 27.5267C48.6951 21.4721 51.6 12.3307 49.1999 3.3732L39.6915 5.92095L40.6662 9.55827L46.2127 8.07208C46.5566 12.4041 45.5043 16.6573 43.3633 20.2883L43.3653 20.2959" fill="#F6B90C"/>
<path d="M18.86 33.8258C10.3879 31.7283 3.30144 25.2641 0.90332 16.3141L10.4117 13.7664L11.3863 17.4037L5.84729 18.8879C7.72306 22.8095 10.7534 25.9687 14.4155 28.0448C14.4195 28.0599 14.4215 28.0674 14.4331 28.0805" fill="#F6B90C"/>
<path d="M35.674 36.3249C34.7234 36.8223 33.7048 37.2165 32.6332 37.5037C31.456 37.8191 30.263 37.9851 29.098 38.0142L28.9198 37.1075L35.3472 35.3772L35.674 36.3249Z" fill="#F8C73D"/>
<path d="M32.2238 36.6104C24.1418 38.776 15.8365 33.9809 13.6709 25.8988L9.80273 11.4628L39.0748 3.61934L42.9409 18.0479C45.099 26.132 40.3059 34.4448 32.2238 36.6104Z" fill="#F9D05C"/>
<path d="M25.4745 11.4209L29.453 17.5452L36.5012 15.6566L31.9063 21.3282L35.8827 27.4449L29.0676 24.8306L24.4803 30.5002L24.8581 23.2167L18.0505 20.6004L25.0987 18.7119L25.4745 11.4209Z" fill="#E0A80B"/>
</g>
<defs>
<clipPath id="clip0_466_4486">
<rect width="50" height="50" fill="white" transform="translate(0 12.941) rotate(-15)"/>
</clipPath>
</defs>
</svg>
