<svg width="39" height="47" viewBox="0 0 39 47" fill="none" xmlns="http://www.w3.org/2000/svg">
<path d="M25.458 32.6195L26.3153 33.0792L26.9988 42.4073C27.0206 42.7044 26.726 42.9233 26.4478 42.8166L22.4018 41.2653C22.2888 41.222 22.1624 41.2312 22.057 41.2906L18.2804 43.4151C18.0207 43.5612 17.6973 43.3876 17.6756 43.0905L16.9875 33.7014L17.5898 33.1835L25.458 32.6195Z" fill="#4C5FFF"/>
<path d="M16.9872 33.7014L16.8482 31.8043L26.1764 31.1878L26.315 33.0793C23.4232 34.1611 20.1996 34.4338 16.9872 33.7014Z" fill="#4C5FFF"/>
<path d="M8.99782 28.209L8.02555 28.1785L2.76956 35.915C2.60212 36.1614 2.74785 36.4984 3.04213 36.545L7.32168 37.2246C7.44122 37.2436 7.54606 37.3148 7.60769 37.4189L9.81606 41.1471C9.96786 41.4034 10.3348 41.4148 10.5021 41.1684L15.7925 33.3812L15.5298 32.6315L8.99782 28.209Z" fill="#4C5FFF"/>
<path d="M15.7929 33.3813L16.8619 31.8079L9.09166 26.6098L8.02587 28.1786C9.98929 30.5613 12.6447 32.4094 15.7929 33.3813Z" fill="#4C5FFF"/>
<path d="M17.1263 30.8195C3.11884 27.0662 6.72703 13.5538 6.80139 13.3228C9.15704 6.00409 16.8687 1.74601 24.3774 3.75796C31.8861 5.76992 36.4355 13.3133 34.8163 20.8293C34.7651 21.0666 31.1512 34.5775 17.1263 30.8195Z" fill="#CBD1D7"/>
<path d="M17.2408 30.394C9.73206 28.3821 5.18286 20.8387 6.80204 13.3228C6.72768 13.5538 6.65849 13.7879 6.59498 14.0249C4.51952 21.7707 9.11621 29.7324 16.862 31.8078C24.6077 33.8833 32.5694 29.2866 34.6449 21.5409C34.7084 21.3038 34.7655 21.0665 34.8166 20.8293C32.4609 28.1478 24.7495 32.406 17.2408 30.394Z" fill="#CBD1D7"/>
<path d="M17.9068 27.9083C6.88034 24.9538 9.70542 14.3512 9.78285 14.1214C11.6941 8.44647 17.7158 5.1628 23.5803 6.7342C29.4449 8.3056 33.018 14.1602 31.8357 20.0305C31.7878 20.2682 28.9554 30.8688 17.9068 27.9083Z" fill="#A7B1BC"/>
<path d="M18.0376 27.4178C12.1731 25.8464 8.60097 19.9919 9.78314 14.1217C9.7057 14.3516 9.6342 14.5849 9.57057 14.8224C7.93554 20.9244 11.5568 27.1965 17.6588 28.8316C23.7608 30.4666 30.0329 26.8454 31.6679 20.7434C31.7316 20.5058 31.7863 20.2681 31.8342 20.0303C29.9229 25.7051 23.902 28.9891 18.0376 27.4178Z" fill="#A7B1BC"/>
<path d="M23.0728 12.672L23.5438 15.036C23.6189 15.4129 23.8747 15.7287 24.2277 15.8805L26.4421 16.8327C27.3313 17.215 27.396 18.4509 26.5517 18.9242L24.449 20.1026C24.1137 20.2905 23.8924 20.6313 23.8571 21.014L23.6358 23.4143C23.6148 23.642 23.4142 24.0026 23.4142 24.0026L21.8373 23.58L19.6411 21.4334L16.6658 22.1943L15.0935 21.8067C15.0935 21.8067 15.0899 21.3713 15.1912 21.1515L16.1997 18.9622C16.3605 18.6131 16.3392 18.2072 16.1428 17.8769L14.911 15.805C14.4164 14.9731 15.0904 13.9351 16.0516 14.0485L18.4455 14.3311C18.8271 14.3762 19.2066 14.2305 19.46 13.9417L21.0499 12.1299C21.6882 11.4025 22.8837 11.7228 23.0728 12.672Z" fill="#828F9A"/>
<path d="M19.6295 20.746L15.0897 21.7718C15.1642 22.4194 15.7881 22.9422 16.5092 22.7792L18.8604 22.248C19.2352 22.1633 19.6278 22.2684 19.9101 22.5292L21.6807 24.1649C22.2237 24.6666 23.0255 24.5258 23.4138 24.0022L19.9951 20.844C19.8966 20.7531 19.76 20.7165 19.6295 20.746Z" fill="#828F9A"/>
</svg>
