<svg width="70" height="62" viewBox="0 0 70 62" fill="none" xmlns="http://www.w3.org/2000/svg">
<path d="M28.541 20.0893C29.5469 17.9702 32.4531 17.9702 33.459 20.0893L35.1974 23.7515C35.5968 24.5929 36.3689 25.1762 37.262 25.3111L41.1492 25.8984C43.3983 26.2382 44.2964 29.1119 42.6689 30.7614L39.8561 33.612C39.2099 34.267 38.9149 35.2107 39.0675 36.1355L39.7315 40.1607C40.1157 42.4897 37.7645 44.2658 35.7528 43.1662L32.276 41.2658C31.4772 40.8291 30.5228 40.8291 29.724 41.2658L26.2472 43.1662C24.2355 44.2658 21.8843 42.4897 22.2685 40.1607L22.9325 36.1355C23.0851 35.2107 22.7901 34.267 22.1439 33.612L19.3311 30.7614C17.7036 29.1119 18.6017 26.2382 20.8508 25.8984L24.738 25.3111C25.6311 25.1762 26.4032 24.5929 26.8026 23.7515L28.541 20.0893Z" fill="white"/>
</svg>
