<svg width="20" height="20" viewBox="0 0 20 20" fill="none" xmlns="http://www.w3.org/2000/svg">
<path d="M6.66675 5V10" stroke="white" stroke-width="2" stroke-linecap="round" stroke-linejoin="round"/>
<path d="M12.5 5V10" stroke="white" stroke-width="2" stroke-linecap="round" stroke-linejoin="round"/>
<path d="M1.66675 10H18.0001" stroke="white" stroke-width="2" stroke-linecap="round" stroke-linejoin="round"/>
<path d="M15.0001 15H17.5001C17.5001 15 17.9167 13.5833 18.1667 12.6667C18.2501 12.3333 18.3334 12 18.3334 11.6667C18.3334 11.3333 18.2501 11 18.1667 10.6667L17.0001 6.5C16.7501 5.66667 15.9167 5 15.0001 5H3.33341C2.89139 5 2.46746 5.17559 2.1549 5.48816C1.84234 5.80072 1.66675 6.22464 1.66675 6.66667V15H4.16675" stroke="white" stroke-width="2" stroke-linecap="round" stroke-linejoin="round"/>
<path d="M5.83341 16.6666C6.75389 16.6666 7.50008 15.9204 7.50008 14.9999C7.50008 14.0794 6.75389 13.3333 5.83341 13.3333C4.91294 13.3333 4.16675 14.0794 4.16675 14.9999C4.16675 15.9204 4.91294 16.6666 5.83341 16.6666Z" stroke="white" stroke-width="2" stroke-linecap="round" stroke-linejoin="round"/>
<path d="M7.5 15H11.6667" stroke="white" stroke-width="2" stroke-linecap="round" stroke-linejoin="round"/>
<path d="M13.3334 16.6666C14.2539 16.6666 15.0001 15.9204 15.0001 14.9999C15.0001 14.0794 14.2539 13.3333 13.3334 13.3333C12.4129 13.3333 11.6667 14.0794 11.6667 14.9999C11.6667 15.9204 12.4129 16.6666 13.3334 16.6666Z" stroke="white" stroke-width="2" stroke-linecap="round" stroke-linejoin="round"/>
</svg>
