<svg width="30" height="30" viewBox="0 0 30 30" fill="none" xmlns="http://www.w3.org/2000/svg">
<path d="M7.92901 18.5356C6.9527 19.5119 6.9527 21.0948 7.92901 22.0711C8.90532 23.0475 10.4882 23.0475 11.4645 22.0711L15.0001 18.5356L18.5356 22.0711C19.5119 23.0475 21.0948 23.0475 22.0711 22.0711C23.0475 21.0948 23.0475 19.5119 22.0711 18.5356L18.5356 15.0001L22.0711 11.4645C23.0475 10.4882 23.0475 8.90532 22.0711 7.92901C21.0948 6.9527 19.5119 6.9527 18.5356 7.92901L15.0001 11.4645L11.4645 7.92901C10.4882 6.9527 8.90532 6.9527 7.92901 7.92901C6.9527 8.90532 6.9527 10.4882 7.92901 11.4645L11.4645 15.0001L7.92901 18.5356Z" fill="white"/>
</svg>
