<svg width="24" height="24" viewBox="0 0 24 24" fill="none" xmlns="http://www.w3.org/2000/svg">
<path d="M16.75 11.1514V21.8913C18.4424 21.4353 20.2888 20.1678 21.2778 19.42C21.7446 19.0671 22 18.5104 22 17.9252V8.25576C22 7.4023 20.9721 6.9074 20.2637 7.38342C19.576 7.84558 18.7481 8.34335 17.9024 8.71585C17.8843 8.77006 17.8658 8.82409 17.847 8.87792C17.5779 9.64437 17.2039 10.4295 16.75 11.1514Z" fill="white"/>
<path d="M8.75 11.975V18.8354C10.0281 18.9422 11.014 19.6923 12 20.4423C12.9859 21.1923 13.9719 21.9424 15.25 22.0492V12.977C14.5035 13.6496 13.5564 14.1941 12.462 14.1941C11.4821 14.1941 10.6263 13.7525 9.95708 13.218C9.51478 12.8648 9.11057 12.4377 8.75 11.975Z" fill="white"/>
<path d="M6.58941 6.44748C5.09544 7.00772 3.58355 8.05323 2.72215 8.70456C2.25538 9.0575 2 9.61421 2 10.1994V19.8688C2 20.7223 3.0279 21.2172 3.73627 20.7411C4.73646 20.069 6.03308 19.3216 7.25 18.9937V9.33706C6.8583 8.36313 6.6092 7.3504 6.58941 6.44748Z" fill="white"/>
<path d="M12.4622 1.99506C14.9575 1.99516 16.9807 3.93741 16.9807 6.33295C16.9807 6.95101 16.8296 7.68331 16.5676 8.42963C15.8142 10.5759 14.1383 12.8386 12.4622 12.8388C10.2031 12.8388 7.94377 8.72859 7.9436 6.33295C7.9436 6.15961 7.95426 5.98827 7.97485 5.82025C8.23894 3.66616 10.1473 1.99506 12.4622 1.99506ZM12.4622 4.70599C11.7136 4.70599 11.1067 5.31286 11.1067 6.06146C11.1067 6.81009 11.7135 7.41693 12.4622 7.41693C13.2107 7.41682 13.8176 6.81002 13.8176 6.06146C13.8176 5.31293 13.2107 4.70611 12.4622 4.70599Z" fill="white"/>
</svg>
