<svg width="30" height="30" viewBox="0 0 30 30" fill="none" xmlns="http://www.w3.org/2000/svg">
<path d="M25.8691 21.0187C26.3423 20.8084 26.8962 21.0211 27.1064 21.4943C27.3167 21.9673 27.1038 22.5212 26.6309 22.7316L16.3955 27.2804C15.5068 27.6753 14.4922 27.6754 13.6035 27.2804L3.36914 22.7316C2.896 22.5213 2.68327 21.9674 2.89355 21.4943C3.10387 21.0212 3.65774 20.8084 4.13086 21.0187L14.3652 25.5665C14.7692 25.7461 15.2308 25.7461 15.6348 25.5665L25.8691 21.0187ZM25.8691 15.3937C26.3423 15.1834 26.8962 15.3961 27.1064 15.8693C27.3167 16.3423 27.1038 16.8962 26.6309 17.1066L16.3955 21.6554C15.5068 22.0503 14.4922 22.0504 13.6035 21.6554L3.36914 17.1066C2.896 16.8963 2.68327 16.3424 2.89355 15.8693C3.10387 15.3962 3.65774 15.1834 4.13086 15.3937L14.3652 19.9415C14.7692 20.1211 15.2308 20.1211 15.6348 19.9415L25.8691 15.3937ZM13.4629 2.84583C14.4306 2.36199 15.5694 2.36196 16.5371 2.84583L25.6836 7.41809C27.2955 8.22425 27.2953 10.5248 25.6836 11.3312L16.5371 15.9044C15.5694 16.3882 14.4306 16.3882 13.4629 15.9044L4.31641 11.3312C2.70459 10.5249 2.70439 8.22422 4.31641 7.41809L13.4629 2.84583Z" fill="white"/>
</svg>
