<svg width="1577" height="1062" viewBox="0 0 1577 1062" fill="none" xmlns="http://www.w3.org/2000/svg">
<g clip-path="url(#clip0_710_2308)">
<rect width="1577" height="1062" fill="#121139"/>
<line x1="120.5" y1="-2.18557e-08" x2="120.5" y2="1350" stroke="#4C5FFF" stroke-opacity="0.1"/>
<line x1="174.5" y1="-2.18557e-08" x2="174.5" y2="1350" stroke="#4C5FFF" stroke-opacity="0.1"/>
<line x1="228.5" y1="-2.18557e-08" x2="228.5" y2="1350" stroke="#4C5FFF" stroke-opacity="0.1"/>
<line x1="282.5" y1="-2.18557e-08" x2="282.5" y2="1350" stroke="#4C5FFF" stroke-opacity="0.1"/>
<line x1="336.5" y1="-2.18557e-08" x2="336.5" y2="1350" stroke="#4C5FFF" stroke-opacity="0.1"/>
<line x1="390.5" y1="-2.18557e-08" x2="390.5" y2="1350" stroke="#4C5FFF" stroke-opacity="0.1"/>
<line x1="444.5" y1="-2.18557e-08" x2="444.5" y2="1350" stroke="#4C5FFF" stroke-opacity="0.1"/>
<line x1="498.5" y1="-2.18557e-08" x2="498.5" y2="1350" stroke="#4C5FFF" stroke-opacity="0.1"/>
<line x1="552.5" y1="-2.18557e-08" x2="552.5" y2="1350" stroke="#4C5FFF" stroke-opacity="0.1"/>
<line x1="606.5" y1="-2.18557e-08" x2="606.5" y2="1350" stroke="#4C5FFF" stroke-opacity="0.1"/>
<line x1="660.5" y1="-2.18557e-08" x2="660.5" y2="1350" stroke="#4C5FFF" stroke-opacity="0.1"/>
<line x1="714.5" y1="-2.18557e-08" x2="714.5" y2="1350" stroke="#4C5FFF" stroke-opacity="0.1"/>
<line x1="768.5" y1="-2.18557e-08" x2="768.5" y2="1350" stroke="#4C5FFF" stroke-opacity="0.1"/>
<line x1="822.5" y1="-2.18557e-08" x2="822.5" y2="1350" stroke="#4C5FFF" stroke-opacity="0.1"/>
<line x1="876.5" y1="-2.18557e-08" x2="876.5" y2="1350" stroke="#4C5FFF" stroke-opacity="0.1"/>
<line x1="930.5" y1="-2.18557e-08" x2="930.5" y2="1350" stroke="#4C5FFF" stroke-opacity="0.1"/>
<line x1="984.5" y1="-2.18557e-08" x2="984.5" y2="1350" stroke="#4C5FFF" stroke-opacity="0.1"/>
<line x1="1038.5" y1="-2.18557e-08" x2="1038.5" y2="1350" stroke="#4C5FFF" stroke-opacity="0.1"/>
<line x1="1092.5" y1="-2.18557e-08" x2="1092.5" y2="1350" stroke="#4C5FFF" stroke-opacity="0.1"/>
<line x1="1281" y1="54.5" x2="-69" y2="54.5001" stroke="#4C5FFF" stroke-opacity="0.1"/>
<line x1="1281" y1="108.5" x2="-69" y2="108.5" stroke="#4C5FFF" stroke-opacity="0.1"/>
<line x1="1281" y1="162.5" x2="-69" y2="162.5" stroke="#4C5FFF" stroke-opacity="0.1"/>
<line x1="1281" y1="216.5" x2="-69" y2="216.5" stroke="#4C5FFF" stroke-opacity="0.1"/>
<line x1="1281" y1="270.5" x2="-69" y2="270.5" stroke="#4C5FFF" stroke-opacity="0.1"/>
<line x1="1281" y1="324.5" x2="-69" y2="324.5" stroke="#4C5FFF" stroke-opacity="0.1"/>
<line x1="1281" y1="378.5" x2="-69" y2="378.5" stroke="#4C5FFF" stroke-opacity="0.1"/>
<line x1="1281" y1="432.5" x2="-69" y2="432.5" stroke="#4C5FFF" stroke-opacity="0.1"/>
<line x1="1281" y1="486.5" x2="-69" y2="486.5" stroke="#4C5FFF" stroke-opacity="0.1"/>
<line x1="1281" y1="540.5" x2="-69" y2="540.5" stroke="#4C5FFF" stroke-opacity="0.1"/>
<line x1="1281" y1="594.5" x2="-69" y2="594.5" stroke="#4C5FFF" stroke-opacity="0.1"/>
<line x1="1281" y1="648.5" x2="-69" y2="648.5" stroke="#4C5FFF" stroke-opacity="0.1"/>
<line x1="1281" y1="702.5" x2="-69" y2="702.5" stroke="#4C5FFF" stroke-opacity="0.1"/>
<line x1="1281" y1="756.5" x2="-69" y2="756.5" stroke="#4C5FFF" stroke-opacity="0.1"/>
<line x1="1281" y1="810.5" x2="-69" y2="810.5" stroke="#4C5FFF" stroke-opacity="0.1"/>
<line x1="1281" y1="864.5" x2="-69" y2="864.5" stroke="#4C5FFF" stroke-opacity="0.1"/>
<line x1="1281" y1="918.5" x2="-69" y2="918.5" stroke="#4C5FFF" stroke-opacity="0.1"/>
<line x1="1281" y1="972.5" x2="-69" y2="972.5" stroke="#4C5FFF" stroke-opacity="0.1"/>
<line x1="1281" y1="1026.5" x2="-69" y2="1026.5" stroke="#4C5FFF" stroke-opacity="0.1"/>
<g style="mix-blend-mode:hard-light" opacity="0.5" filter="url(#filter0_f_710_2308)">
<ellipse cx="227.5" cy="324.5" rx="322.5" ry="388.5" fill="url(#paint0_radial_710_2308)"/>
</g>
<g style="mix-blend-mode:hard-light" opacity="0.5" filter="url(#filter1_f_710_2308)">
<circle cx="446.5" cy="1350.5" r="375.5" fill="url(#paint1_radial_710_2308)"/>
</g>
<g style="mix-blend-mode:hard-light" opacity="0.5" filter="url(#filter2_f_710_2308)">
<circle cx="338.5" cy="1023.5" r="375.5" fill="url(#paint2_radial_710_2308)"/>
</g>
<g style="mix-blend-mode:hard-light" opacity="0.5" filter="url(#filter3_f_710_2308)">
<circle cx="975.5" cy="405.5" r="375.5" fill="url(#paint3_radial_710_2308)"/>
</g>
<rect opacity="0.7" x="729.334" y="906" width="8.33332" height="8.33332" fill="white"/>
<rect opacity="0.7" x="721" y="914.334" width="8.33332" height="8.33332" fill="white"/>
<rect x="729.334" y="914.334" width="8.33332" height="8.33332" fill="white"/>
<rect opacity="0.7" x="737.666" y="914.334" width="8.33332" height="8.33332" fill="white"/>
<rect opacity="0.7" x="729.334" y="922.666" width="8.33332" height="8.33332" fill="white"/>
<rect opacity="0.7" x="1100.33" y="756" width="8.33332" height="8.33332" fill="white"/>
<rect opacity="0.7" x="1092" y="764.334" width="8.33332" height="8.33332" fill="white"/>
<rect x="1100.33" y="764.334" width="8.33332" height="8.33332" fill="white"/>
<rect opacity="0.7" x="1108.67" y="764.334" width="8.33332" height="8.33332" fill="white"/>
<rect opacity="0.7" x="1100.33" y="772.666" width="8.33332" height="8.33332" fill="white"/>
<rect opacity="0.5" x="1265" y="655" width="8.33" height="8.33" fill="white"/>
<rect x="994" y="568" width="8.33" height="8.33" fill="white"/>
<rect opacity="0.5" x="592" y="449" width="8.33" height="8.33" fill="white"/>
<rect x="112" y="324" width="8.33" height="8.33" fill="white"/>
<rect opacity="0.5" x="1084" y="162" width="8.33" height="8.33" fill="white"/>
<rect x="524" y="150" width="8.33" height="8.33" fill="white"/>
<rect x="120" y="30" width="8.33" height="8.33" fill="white"/>
<rect opacity="0.5" x="27" y="108" width="8.33" height="8.33" fill="white"/>
<rect opacity="0.5" x="363" y="564" width="8.33" height="8.33" fill="white"/>
<rect x="166" y="911" width="8.33" height="8.33" fill="white"/>
<rect opacity="0.5" x="1076" y="906" width="8.33" height="8.33" fill="white"/>
<rect opacity="0.7" x="1359.33" y="839" width="8.33332" height="8.33332" fill="white"/>
<rect opacity="0.7" x="1351" y="847.334" width="8.33332" height="8.33332" fill="white"/>
<rect x="1359.33" y="847.334" width="8.33332" height="8.33332" fill="white"/>
<rect opacity="0.7" x="1367.67" y="847.334" width="8.33332" height="8.33332" fill="white"/>
<rect opacity="0.7" x="1359.33" y="855.666" width="8.33332" height="8.33332" fill="white"/>
<g opacity="0.5">
<rect opacity="0.7" x="1264.33" y="353" width="8.33332" height="8.33332" fill="white"/>
<rect opacity="0.7" x="1256" y="361.334" width="8.33332" height="8.33332" fill="white"/>
<rect x="1264.33" y="361.334" width="8.33332" height="8.33332" fill="white"/>
<rect opacity="0.7" x="1272.67" y="361.334" width="8.33332" height="8.33332" fill="white"/>
<rect opacity="0.7" x="1264.33" y="369.666" width="8.33332" height="8.33332" fill="white"/>
</g>
<rect opacity="0.7" x="1388.33" y="207" width="8.33332" height="8.33332" fill="white"/>
<rect opacity="0.7" x="1380" y="215.334" width="8.33332" height="8.33332" fill="white"/>
<rect x="1388.33" y="215.334" width="8.33332" height="8.33332" fill="white"/>
<rect opacity="0.7" x="1396.67" y="215.334" width="8.33332" height="8.33332" fill="white"/>
<rect opacity="0.7" x="1388.33" y="223.666" width="8.33332" height="8.33332" fill="white"/>
<rect opacity="0.7" x="750.334" y="54" width="8.33332" height="8.33332" fill="white"/>
<rect opacity="0.7" x="742" y="62.3337" width="8.33332" height="8.33332" fill="white"/>
<rect x="750.334" y="62.3337" width="8.33332" height="8.33332" fill="white"/>
<rect opacity="0.7" x="758.666" y="62.3337" width="8.33332" height="8.33332" fill="white"/>
<rect opacity="0.7" x="750.334" y="70.6663" width="8.33332" height="8.33332" fill="white"/>
<g opacity="0.5">
<rect opacity="0.7" x="224.334" y="182" width="8.33332" height="8.33332" fill="white"/>
<rect opacity="0.7" x="216" y="190.334" width="8.33332" height="8.33332" fill="white"/>
<rect x="224.334" y="190.334" width="8.33332" height="8.33332" fill="white"/>
<rect opacity="0.7" x="232.666" y="190.334" width="8.33332" height="8.33332" fill="white"/>
<rect opacity="0.7" x="224.334" y="198.666" width="8.33332" height="8.33332" fill="white"/>
</g>
<rect opacity="0.7" x="31.334" y="582" width="8.33332" height="8.33332" fill="white"/>
<rect opacity="0.7" x="23" y="590.334" width="8.33332" height="8.33332" fill="white"/>
<rect x="31.334" y="590.334" width="8.33332" height="8.33332" fill="white"/>
<rect opacity="0.7" x="39.666" y="590.334" width="8.33332" height="8.33332" fill="white"/>
<rect opacity="0.7" x="31.334" y="598.666" width="8.33332" height="8.33332" fill="white"/>
<rect x="1223" y="54" width="8.33" height="8.33" fill="white"/>
<rect x="1401" y="482" width="8.33" height="8.33" fill="white"/>
</g>
<defs>
<filter id="filter0_f_710_2308" x="-395" y="-364" width="1245" height="1377" filterUnits="userSpaceOnUse" color-interpolation-filters="sRGB">
<feFlood flood-opacity="0" result="BackgroundImageFix"/>
<feBlend mode="normal" in="SourceGraphic" in2="BackgroundImageFix" result="shape"/>
<feGaussianBlur stdDeviation="150" result="effect1_foregroundBlur_710_2308"/>
</filter>
<filter id="filter1_f_710_2308" x="-229" y="675" width="1351" height="1351" filterUnits="userSpaceOnUse" color-interpolation-filters="sRGB">
<feFlood flood-opacity="0" result="BackgroundImageFix"/>
<feBlend mode="normal" in="SourceGraphic" in2="BackgroundImageFix" result="shape"/>
<feGaussianBlur stdDeviation="150" result="effect1_foregroundBlur_710_2308"/>
</filter>
<filter id="filter2_f_710_2308" x="-337" y="348" width="1351" height="1351" filterUnits="userSpaceOnUse" color-interpolation-filters="sRGB">
<feFlood flood-opacity="0" result="BackgroundImageFix"/>
<feBlend mode="normal" in="SourceGraphic" in2="BackgroundImageFix" result="shape"/>
<feGaussianBlur stdDeviation="150" result="effect1_foregroundBlur_710_2308"/>
</filter>
<filter id="filter3_f_710_2308" x="300" y="-270" width="1351" height="1351" filterUnits="userSpaceOnUse" color-interpolation-filters="sRGB">
<feFlood flood-opacity="0" result="BackgroundImageFix"/>
<feBlend mode="normal" in="SourceGraphic" in2="BackgroundImageFix" result="shape"/>
<feGaussianBlur stdDeviation="150" result="effect1_foregroundBlur_710_2308"/>
</filter>
<radialGradient id="paint0_radial_710_2308" cx="0" cy="0" r="1" gradientUnits="userSpaceOnUse" gradientTransform="translate(227.5 324.5) rotate(90) scale(388.5 322.5)">
<stop stop-color="#65F1CF"/>
<stop offset="0.793269" stop-color="#65F1CF" stop-opacity="0.32"/>
</radialGradient>
<radialGradient id="paint1_radial_710_2308" cx="0" cy="0" r="1" gradientUnits="userSpaceOnUse" gradientTransform="translate(446.5 1350.5) rotate(90) scale(375.5)">
<stop stop-color="#65F1CF"/>
<stop offset="0.793269" stop-color="#65F1CF" stop-opacity="0.32"/>
<stop offset="1" stop-color="#4C5FFF" stop-opacity="0.5"/>
</radialGradient>
<radialGradient id="paint2_radial_710_2308" cx="0" cy="0" r="1" gradientUnits="userSpaceOnUse" gradientTransform="translate(338.5 1023.5) rotate(90) scale(375.5)">
<stop stop-color="#4C5FFF"/>
<stop offset="0.793269" stop-color="#4C5FFF" stop-opacity="0.32"/>
</radialGradient>
<radialGradient id="paint3_radial_710_2308" cx="0" cy="0" r="1" gradientUnits="userSpaceOnUse" gradientTransform="translate(975.5 405.5) rotate(90) scale(375.5)">
<stop stop-color="#4C5FFF"/>
<stop offset="0.793269" stop-color="#4C5FFF" stop-opacity="0.32"/>
</radialGradient>
<clipPath id="clip0_710_2308">
<rect width="1577" height="1062" fill="white"/>
</clipPath>
</defs>
</svg>
